<?xml version="1.0" encoding="UTF-8"?>
<svg width="234px" height="156px" viewBox="0 0 234 156" version="1.1" xmlns="http://www.w3.org/2000/svg" xmlns:xlink="http://www.w3.org/1999/xlink">
    <!-- Generator: Sketch 63.1 (92452) - https://sketch.com -->
    <title>Artboard Copy 71</title>
    <desc>Created with Sketch.</desc>
    <defs>
        <polygon id="path-1" points="0 0 113 0 113 45 0 45"></polygon>
    </defs>
    <g id="Artboard-Copy-71" stroke="none" stroke-width="1" fill="none" fill-rule="evenodd">
        <g id="Group" transform="translate(42.000000, 26.000000)">
            <g id="Group-4" transform="translate(0.000000, 54.000000)">
                <mask id="mask-2" fill="white">
                    <use xlink:href="#path-1"></use>
                </mask>
                <g id="Clip-2"></g>
                <path d="M84.6138675,1 C84.6138675,1 84.6207722,20.516791 84.6138675,26.6667761 C84.8057201,36.9552239 87.9703842,39.7052239 96.1766458,39.8557761 C106.83507,39.7052239 107.091695,33.2390299 107.246065,26.9951343 C107.406847,20.4980746 107.246065,1 107.246065,1 L113,1 C113,1 113,22.5074627 113,28.9652836 C112.671204,36.572194 109.492895,45 96.286135,45 C81.0520175,45 79.5175253,35.0945821 79.0243309,29.7861791 C78.9695863,23 79.0243309,1 79.0243309,1 L84.6138675,1" id="Fill-1" fill="#48924A" mask="url(#mask-2)"></path>
                <path d="M0,0.0658852537 C0,0.0658852537 14.3487187,-0.0823565672 19.128341,0.0658852537 C22.7119906,0.176863214 27.7732018,0.602387211 31.9109986,6.51058044 C36.2863808,12.7583792 38.7492574,27.6476511 30.8614848,37.8179187 C27.2550126,42.467765 21.8898824,42.8524452 18.5536698,42.9437336 C13.9170585,43.0703331 0,42.9437336 0,42.9437336 L0,42.9437336 Z M18.188555,6 L5,6 L5,6 L5,38 L17.6813029,38 L17.6813029,38 C20.7261682,38 26.4704603,35.8549017 28.6032863,31.053975 C30.3325088,27.161717 30.5693955,18.0945144 28.6717654,13.9207529 C26.0489338,8.15191014 21.5553564,6 18.188555,6 Z" id="Combined-Shape" fill="#C53A2F" mask="url(#mask-2)"></path>
            </g>
            <polygon id="Fill-6" fill="#4D9CC7" points="40 97 45 97 45 54 40 54"></polygon>
            <polyline id="Fill-7" fill="#6C71A6" points="125.423226 98 125.423226 62.5227273 137.896825 98 143.048833 98 155.468254 63 155.468254 98 161 98 161 56 153.000607 56 140.757714 91.9279773 128.568675 56 120 56 120 98 125.423226 98"></polyline>
            <path d="M74,13.0000799 C74,20.1797414 69.0751849,26 63.0000813,26 C56.9249776,26 52,20.1797414 52,13.0000799 C52,5.82025857 56.9249776,0 63.0000813,0 C69.0751849,0 74,5.82025857 74,13.0000799" id="Fill-8" fill="#D87234"></path>
            <path d="M62.2931639,31 C83.607362,30.9988649 107,39.1083926 107,39.1083926 L107,39.1083926 L105.532866,42.959725 C105.532866,42.959725 92.9807187,39.0273119 89.3128834,38.4188825 C76.2716915,44.1353949 71.3554882,53.9839411 68.7730061,61.0812576 C63.9640666,74.2974089 64.6161262,97 64.6161262,97 L64.6161262,97 L59.766433,97 C59.766433,97 60.9825241,71.5001253 52.1797195,53.6623751 C49.8153514,48.8709933 40.5525188,40.6648174 33.9504154,37.7864531 C29.3044908,38.4756389 15.3041192,42.6354023 15.3041192,42.6354023 L15.3041192,42.6354023 L14,38.7840699 C14,38.7840699 34.4583699,30.9988649 62.2931639,31 Z M62.7575675,35.0009772 L62.0998553,35.0007599 C52.0924971,35.0385885 42,36.4760744 42,36.4760744 C42,36.4760744 49.6546966,40.5252372 55.5151134,49.7069767 C61.6051839,59.2481674 62.7670746,69 62.7670746,69 C62.7670746,69 63.6885742,60.5661023 69.9387452,49.6016558 C74.9916078,40.7374605 83,36.8979907 83,36.8979907 C83,36.8979907 68.9236533,35 62.5000801,35 Z" id="Combined-Shape" fill="#D77234"></path>
        </g>
    </g>
</svg>