<svg width="36" height="24" viewBox="0 0 36 24" fill="none" xmlns="http://www.w3.org/2000/svg">
    <path d="M20.73.002a1.286 1.286 0 0 0-1.19.964l-5.57 20.56a1.291 1.291 0 1 0 2.49.683l5.57-20.56a1.285 1.285 0 0 0-1.3-1.647zm-9.289 2.155a1.286 1.286 0 0 0-.67.281L.492 10.577a1.285 1.285 0 0 0 0 2.02l10.28 8.14a1.29 1.29 0 1 0 1.607-2.022L3.37 11.594l9.008-7.135a1.285 1.285 0 0 0-.937-2.302zm12.823 0a1.286 1.286 0 0 0-.642 2.302l9.008 7.135-9.008 7.121a1.29 1.29 0 1 0 1.606 2.021l10.28-8.138a1.285 1.285 0 0 0 0-2.022l-10.28-8.138a1.285 1.285 0 0 0-.964-.281z" fill="#0138A1"/>
</svg>
