<svg width="159" height="44" viewBox="0 0 159 44" fill="none" xmlns="http://www.w3.org/2000/svg">
    <path d="M17.606 40.419C12.574 45.455 4.05 45.435 1.67 38.723A29.029 29.029 0 0 1 12.889 4.89a28.987 28.987 0 0 1 32.222 0 29.014 29.014 0 0 1 10.681 13.023 29.035 29.035 0 0 1 .538 20.81c-2.38 6.712-10.904 6.732-15.936 1.696l-7.769-7.773c-.742-.743-.666-1.968-.46-2.998A3.23 3.23 0 0 0 29 25.79a3.226 3.226 0 0 0-3.164 3.858c.205 1.03.281 2.255-.461 2.997l-7.769 7.774z" fill="url(#jvqk796hna)"/>
    <path d="M67.454 30V13.273h6.6c1.268 0 2.349.242 3.242.727.893.479 1.573 1.146 2.042 2 .473.85.71 1.83.71 2.941 0 1.11-.24 2.091-.719 2.94-.479.85-1.173 1.511-2.082 1.985-.904.474-1.998.71-3.284.71h-4.206v-2.834h3.635c.68 0 1.241-.117 1.682-.35.447-.24.779-.57.997-.989.223-.425.335-.912.335-1.462 0-.555-.112-1.04-.335-1.454a2.236 2.236 0 0 0-.997-.972c-.446-.234-1.013-.35-1.699-.35H70.99V30h-3.536zm14.826 0V17.454h3.373v2.19h.131c.229-.78.613-1.367 1.152-1.765a3.027 3.027 0 0 1 1.862-.604c.174 0 .362.01.563.033.202.021.379.051.531.09v3.087a4.555 4.555 0 0 0-.678-.131 6.092 6.092 0 0 0-.792-.057c-.512 0-.97.111-1.372.335a2.467 2.467 0 0 0-.947.915c-.23.392-.343.843-.343 1.355V30h-3.48zm14.496.245c-1.27 0-2.366-.27-3.292-.809a5.533 5.533 0 0 1-2.132-2.27c-.5-.975-.751-2.105-.751-3.39 0-1.296.25-2.428.751-3.397a5.467 5.467 0 0 1 2.132-2.271c.926-.545 2.023-.817 3.292-.817 1.268 0 2.363.272 3.283.817a5.45 5.45 0 0 1 2.14 2.27c.501.97.751 2.102.751 3.398 0 1.285-.25 2.415-.751 3.39a5.515 5.515 0 0 1-2.14 2.27c-.92.54-2.015.809-3.283.809zm.016-2.695c.577 0 1.059-.164 1.446-.49.386-.332.677-.784.874-1.356.201-.572.302-1.223.302-1.952 0-.73-.101-1.38-.302-1.952-.197-.572-.488-1.024-.874-1.356-.387-.332-.869-.498-1.446-.498-.583 0-1.073.166-1.47.498-.392.332-.69.784-.89 1.356-.197.571-.295 1.222-.295 1.952s.098 1.38.294 1.952c.202.572.499 1.023.89 1.356.398.326.888.49 1.47.49zm8.486 2.45V13.273h3.537v13.811h7.171V30h-10.708zm18.653.245c-1.269 0-2.366-.27-3.292-.809a5.526 5.526 0 0 1-2.131-2.27c-.501-.975-.752-2.105-.752-3.39 0-1.296.251-2.428.752-3.397a5.46 5.46 0 0 1 2.131-2.271c.926-.545 2.023-.817 3.292-.817 1.269 0 2.363.272 3.283.817a5.45 5.45 0 0 1 2.14 2.27c.501.97.752 2.102.752 3.398 0 1.285-.251 2.415-.752 3.39a5.515 5.515 0 0 1-2.14 2.27c-.92.54-2.014.809-3.283.809zm.016-2.695c.577 0 1.059-.164 1.446-.49.386-.332.678-.784.874-1.356.201-.572.302-1.223.302-1.952 0-.73-.101-1.38-.302-1.952-.196-.572-.488-1.024-.874-1.356-.387-.332-.869-.498-1.446-.498-.582 0-1.073.166-1.47.498-.392.332-.689.784-.89 1.356-.196.571-.294 1.222-.294 1.952s.098 1.38.294 1.952c.201.572.498 1.023.89 1.356.397.326.888.49 1.47.49zm14.073 7.416c-1.127 0-2.094-.155-2.9-.466-.8-.305-1.437-.721-1.911-1.25a3.853 3.853 0 0 1-.923-1.78l3.218-.433c.098.25.254.485.466.703.212.218.493.392.841.522.354.137.784.205 1.291.205.757 0 1.38-.185 1.87-.556.496-.365.743-.977.743-1.838v-2.295h-.147a3.296 3.296 0 0 1-.686.989c-.305.31-.697.563-1.176.76-.479.195-1.051.293-1.715.293-.942 0-1.8-.218-2.573-.653-.768-.441-1.38-1.114-1.838-2.018-.452-.909-.678-2.058-.678-3.446 0-1.421.232-2.608.695-3.561.463-.953 1.078-1.666 1.846-2.14a4.767 4.767 0 0 1 2.54-.71c.702 0 1.29.119 1.764.359.474.234.855.528 1.143.882.294.348.52.691.678 1.029h.131v-2.108h3.455v12.668c0 1.068-.262 1.96-.784 2.68-.523.718-1.247 1.257-2.173 1.617-.92.364-1.979.547-3.177.547zm.073-7.76c.561 0 1.035-.138 1.422-.416.392-.283.691-.686.898-1.209.212-.528.319-1.16.319-1.895 0-.735-.104-1.372-.311-1.91-.207-.545-.506-.967-.898-1.267-.392-.3-.869-.449-1.43-.449-.571 0-1.053.155-1.445.466-.392.305-.689.73-.89 1.274-.202.544-.303 1.173-.303 1.886 0 .725.101 1.35.303 1.879.206.523.503.928.89 1.217.392.283.874.425 1.445.425zm19.268-6.174-3.185.196a1.65 1.65 0 0 0-.352-.735 1.857 1.857 0 0 0-.71-.531c-.289-.136-.635-.204-1.038-.204-.539 0-.993.114-1.364.343-.37.223-.555.523-.555.898 0 .3.12.553.359.76.24.207.651.373 1.234.498l2.27.457c1.22.251 2.129.654 2.728 1.21.599.555.899 1.284.899 2.188 0 .822-.243 1.544-.727 2.165-.479.62-1.138 1.105-1.977 1.453-.833.343-1.794.515-2.883.515-1.661 0-2.984-.346-3.969-1.037-.98-.697-1.555-1.645-1.724-2.843l3.423-.18c.103.507.353.894.751 1.16.397.262.907.393 1.527.393.61 0 1.1-.117 1.47-.352.376-.24.567-.547.572-.923a.96.96 0 0 0-.4-.776c-.261-.206-.664-.364-1.209-.473l-2.172-.433c-1.226-.245-2.138-.67-2.737-1.274-.593-.605-.89-1.375-.89-2.312 0-.806.218-1.5.654-2.082.441-.583 1.059-1.032 1.854-1.348.8-.316 1.737-.474 2.809-.474 1.585 0 2.832.335 3.741 1.005.915.67 1.448 1.582 1.601 2.736z" fill="#E56F8C"/>
    <defs>
        <linearGradient id="jvqk796hna" x1="55.36" y1="14.509" x2="3.885" y2="14.509" gradientUnits="userSpaceOnUse">
            <stop stop-color="#64C2DB"/>
            <stop offset=".51" stop-color="#7476ED"/>
            <stop offset="1" stop-color="#E56F8C"/>
        </linearGradient>
    </defs>
</svg>
