<svg width="100" height="104" viewBox="0 0 100 104" fill="none" xmlns="http://www.w3.org/2000/svg">
    <path d="M95.721 74.21A49.996 49.996 0 0 0 27.473 9.36 49.995 49.995 0 0 0 3.368 72.034l18.65-7.216a29.996 29.996 0 1 1 55.413 1.306l18.29 8.086z" fill="#3C21F7"/>
    <path d="M95.721 74.21a49.992 49.992 0 0 0-10.63-55.821 49.995 49.995 0 0 0-55.97-9.823l8.35 18.172a29.998 29.998 0 0 1 39.96 39.386l18.29 8.086z" fill="#D7EAFF"/>
    <path d="M28.203 7.285a.263.263 0 0 1-.344.135l-5.066-2.176a.263.263 0 0 1 .008-.486l7.294-2.867a.263.263 0 0 1 .336.35l-2.228 5.044z" fill="#E91E25"/>
</svg>
