<svg width="24" height="24" viewBox="0 0 24 24" fill="none" xmlns="http://www.w3.org/2000/svg">
    <path d="M22.452 0H3.872a1.548 1.548 0 0 0 0 3.097h18.58a1.548 1.548 0 1 0 0-3.097zM22.452 6.968H14.71a1.548 1.548 0 1 0 0 3.096h7.742a1.548 1.548 0 1 0 0-3.096zM22.452 13.935H14.71a1.548 1.548 0 1 0 0 3.097h7.742a1.548 1.548 0 1 0 0-3.097zM22.452 20.903H14.71a1.548 1.548 0 1 0 0 3.097h7.742a1.548 1.548 0 1 0 0-3.097zM6.387 6.581h-2.71A3.68 3.68 0 0 0 0 10.258v10.065A3.68 3.68 0 0 0 3.678 24h2.71a3.681 3.681 0 0 0 3.677-3.677V10.258a3.682 3.682 0 0 0-3.678-3.677zm.58 13.742c0 .32-.26.58-.58.58h-2.71a.58.58 0 0 1-.58-.58V10.258c0-.32.26-.58.58-.58h2.71c.32 0 .58.26.58.58v10.065z" fill="#0138A2"/>
</svg>
