<svg width="25" height="25" viewBox="0 0 25 25" fill="none" xmlns="http://www.w3.org/2000/svg">
    <path d="M6.882 2.182h1.164c.563 0 1.02-.488 1.02-1.09C9.065.488 8.608 0 8.045 0H6.882c-.563 0-1.02.489-1.02 1.091 0 .603.457 1.091 1.02 1.091zM1.02 2.182h1.163c.564 0 1.02-.488 1.02-1.09C3.203.488 2.747 0 2.183 0H1.02C.456 0 0 .489 0 1.091c0 .603.457 1.091 1.02 1.091zM2.183 9.46H1.02C.456 9.46 0 9.95 0 10.553c0 .602.456 1.091 1.02 1.091h1.163c.564 0 1.02-.489 1.02-1.091 0-.603-.456-1.091-1.02-1.091z" fill="#0138A1"/>
    <mask id="b205keqvra" maskUnits="userSpaceOnUse" x="2.838" y="3.8" width="22" height="21" fill="#000">
        <path fill="#fff" d="M2.838 3.8h22v21h-22z"/>
        <path d="M23.611 12.84a.976.976 0 0 0-1.432.18l-1.105 1.5-.993.104c-.159-1.113-.44-2.208-.868-3.189l1.517-.629c.289-.12.512-.374.604-.691l.644-2.205c.168-.576-.131-1.188-.669-1.368-.538-.182-1.11.141-1.278.716l-.497 1.704-1.45.602a5.71 5.71 0 0 0-.883-.86 4.03 4.03 0 0 0-.683-1.6l.394-.541c.346-.476.267-1.162-.177-1.532-.444-.371-1.085-.286-1.431.19l-.466.639a3.075 3.075 0 0 0-1.84-.001l-.465-.638c-.347-.476-.988-.56-1.431-.19-.444.372-.524 1.057-.177 1.532l.394.54a4.02 4.02 0 0 0-.685 1.603c-.322.251-.615.54-.88.858l-1.451-.602-.498-1.703c-.168-.575-.74-.897-1.277-.716-.538.18-.837.792-.67 1.367l.645 2.205c.092.317.315.572.604.692l1.518.629c-.17.388-.316.795-.441 1.213a1.18 1.18 0 0 0-.05.174c-.166.584-.29 1.19-.377 1.801l-.994-.104L5.66 13.02a.975.975 0 0 0-1.433-.18c-.442.373-.517 1.059-.168 1.532l1.374 1.864c.172.233.425.381.7.41l1.466.154v.112c0 .768.083 1.49.242 2.16l-1.093.36c-.32.107-.571.375-.672.717l-.515 1.757c-.168.575.13 1.188.668 1.368.102.034.205.05.306.05.434 0 .836-.298.973-.764l.354-1.21.783-.26C9.727 22.916 11.587 24 13.919 24c2.333 0 4.193-1.084 5.276-2.91l.783.26.355 1.21c.137.467.539.765.973.765a.954.954 0 0 0 .305-.05c.538-.181.837-.793.668-1.368l-.515-1.758c-.1-.343-.352-.61-.672-.716l-1.093-.362c.159-.668.242-1.39.242-2.159V16.8l1.465-.155c.276-.028.53-.177.701-.41l1.374-1.864c.349-.472.273-1.159-.17-1.532zm-11.556-2.512c.028-.016.055-.033.082-.051.491-.298 1.079-.474 1.782-.474.693 0 1.274.17 1.76.46.04.03.081.055.124.078.598.394 1.048.972 1.386 1.627h-6.54c.34-.663.797-1.246 1.406-1.64zm1.864 11.488c-2.07 0-4.283-1.289-4.283-4.904 0-.444.029-1.55.279-2.762h2.984v3.91c0 .603.456 1.091 1.02 1.091.563 0 1.019-.488 1.019-1.09V14.15h2.984a14.35 14.35 0 0 1 .278 2.762c0 3.615-2.211 4.904-4.281 4.904z"/>
    </mask>
    <path d="M23.611 12.84a.976.976 0 0 0-1.432.18l-1.105 1.5-.993.104c-.159-1.113-.44-2.208-.868-3.189l1.517-.629c.289-.12.512-.374.604-.691l.644-2.205c.168-.576-.131-1.188-.669-1.368-.538-.182-1.11.141-1.278.716l-.497 1.704-1.45.602a5.71 5.71 0 0 0-.883-.86 4.03 4.03 0 0 0-.683-1.6l.394-.541c.346-.476.267-1.162-.177-1.532-.444-.371-1.085-.286-1.431.19l-.466.639a3.075 3.075 0 0 0-1.84-.001l-.465-.638c-.347-.476-.988-.56-1.431-.19-.444.372-.524 1.057-.177 1.532l.394.54a4.02 4.02 0 0 0-.685 1.603c-.322.251-.615.54-.88.858l-1.451-.602-.498-1.703c-.168-.575-.74-.897-1.277-.716-.538.18-.837.792-.67 1.367l.645 2.205c.092.317.315.572.604.692l1.518.629c-.17.388-.316.795-.441 1.213a1.18 1.18 0 0 0-.05.174c-.166.584-.29 1.19-.377 1.801l-.994-.104L5.66 13.02a.975.975 0 0 0-1.433-.18c-.442.373-.517 1.059-.168 1.532l1.374 1.864c.172.233.425.381.7.41l1.466.154v.112c0 .768.083 1.49.242 2.16l-1.093.36c-.32.107-.571.375-.672.717l-.515 1.757c-.168.575.13 1.188.668 1.368.102.034.205.05.306.05.434 0 .836-.298.973-.764l.354-1.21.783-.26C9.727 22.916 11.587 24 13.919 24c2.333 0 4.193-1.084 5.276-2.91l.783.26.355 1.21c.137.467.539.765.973.765a.954.954 0 0 0 .305-.05c.538-.181.837-.793.668-1.368l-.515-1.758c-.1-.343-.352-.61-.672-.716l-1.093-.362c.159-.668.242-1.39.242-2.159V16.8l1.465-.155c.276-.028.53-.177.701-.41l1.374-1.864c.349-.472.273-1.159-.17-1.532zm-11.556-2.512c.028-.016.055-.033.082-.051.491-.298 1.079-.474 1.782-.474.693 0 1.274.17 1.76.46.04.03.081.055.124.078.598.394 1.048.972 1.386 1.627h-6.54c.34-.663.797-1.246 1.406-1.64zm1.864 11.488c-2.07 0-4.283-1.289-4.283-4.904 0-.444.029-1.55.279-2.762h2.984v3.91c0 .603.456 1.091 1.02 1.091.563 0 1.019-.488 1.019-1.09V14.15h2.984a14.35 14.35 0 0 1 .278 2.762c0 3.615-2.211 4.904-4.281 4.904z" fill="#0138A1"/>
    <path d="m23.611 12.84-.193.229.011.01.012.007.17-.247zm-1.432.18.241.178-.241-.178zm-1.105 1.5.032.298.131-.014.079-.107-.242-.178zm-.993.104-.297.042.04.286.288-.03-.031-.298zm-.868-3.189-.115-.277-.282.117.122.28.275-.12zm1.517-.629-.115-.277.115.277zm.604-.691-.288-.084.288.084zm.644-2.205.288.084-.288-.084zm-.669-1.368-.096.285.096-.285zm-1.278.716.288.085-.288-.085zm-.497 1.704.115.277.133-.055.04-.138-.288-.084zm-1.45.602-.232.192.142.17.204-.085-.115-.277zm-.883-.86-.294.057.02.111.09.07.184-.237zm-.683-1.6-.242-.177-.129.176.128.176.243-.175zm.394-.541.243.176-.243-.176zm-.177-1.532-.192.23.192-.23zm-1.431.19-.243-.178.243.177zm-.466.639-.09.286.205.064.127-.174-.242-.176zm-1.84-.001-.242.177.126.174.206-.065-.09-.286zm-.465-.638-.242.177.242-.177zm-1.431-.19-.193-.23.193.23zm-.177 1.532.242-.177-.242.177zm.394.54.243.176.128-.176-.129-.176-.242.177zm-.685 1.603.185.237.089-.07.02-.11-.294-.057zm-.88.858-.115.277.204.085.141-.17-.23-.192zm-1.451-.602-.288.085.04.138.133.055.115-.278zM7.805 7.26l-.288.084.288-.084zm-1.277-.716.095.285-.095-.285zm-.67 1.367-.287.084.288-.084zm.645 2.205.288-.084-.288.084zm.604.692-.114.277.114-.277zm1.518.629.275.12.122-.28-.282-.118-.115.278zm-.441 1.213.28.106.004-.01.003-.01-.287-.086zm-.05.174.288.081.003-.01.002-.01-.294-.061zm-.377 1.801-.032.298.288.03.04-.286-.296-.042zm-.994-.104-.241.178.079.107.131.013.031-.298zM5.66 13.02l-.242.178.242-.178zm-1.433-.18-.193-.23.193.23zm-.168 1.532-.242.178.242-.178zm1.374 1.864-.242.178.242-.178zm.7.41.032-.298-.031.298zm1.466.154.3.002.002-.272-.271-.028-.031.298zm.242 2.271.094.285.262-.087-.064-.267-.292.07zm-1.093.362.094.285-.094-.285zm-.672.716-.288-.085.288.085zm-.515 1.757-.288-.084.288.084zm.668 1.368-.095.284.095-.284zm1.279-.714-.288-.085.288.085zm.354-1.21-.094-.286-.15.05-.044.15.288.085zm.783-.26.258-.153-.124-.207-.229.075.095.285zm10.551 0 .095-.285-.23-.076-.123.208.258.153zm.783.259.288-.085-.044-.15-.15-.05-.094.285zm.355 1.21-.288.085.288-.085zm1.278.715-.095-.285.095.285zm.668-1.368.288-.085-.288.085zm-.515-1.758-.288.084.288-.084zm-.672-.716-.094.284.094-.284zm-1.093-.362-.292-.07-.064.268.261.087.095-.285zm.242-2.271-.032-.299-.268.028v.27h.3zm1.465-.155-.03-.298h-.001l.031.298zm.701-.41-.241-.178.241.178zm1.374-1.864-.241-.178.24.178zm-.17-1.532.194-.229-.011-.01-.013-.008-.17.247zm-11.556-2.511-.148-.262-.562.318.606.225.104-.281zm.082-.051-.156-.257-.007.004-.008.005.17.248zm3.543-.013.176-.243-.011-.008-.012-.007-.153.258zm.123.077.165-.25-.012-.008-.012-.007-.141.265zm1.386 1.627v.3h.492l-.226-.438-.266.138zm-6.54 0-.267-.138-.226.438h.492v-.3zm1.406-1.64.163.252.503-.326-.562-.208-.104.282zm-2.14 3.822v-.3H9.67l-.05.24.295.06zm2.984 0h.3v-.3h-.3v.3zm2.039 0v-.3h-.3v.3h.3zm2.984 0 .294-.06-.05-.24h-.244v.3zm.278 2.762h-.3.3zm5.605-4.302a1.275 1.275 0 0 0-1.868.232l.483.356a.676.676 0 0 1 .998-.13l.387-.458zm-1.868.232-1.104 1.5.483.355 1.104-1.499-.483-.356zm-.894 1.379-.994.104.063.597.994-.104-.063-.597zm-.665.36c-.162-1.133-.45-2.255-.89-3.265l-.55.24c.414.95.69 2.018.846 3.11l.594-.085zm-1.05-2.868 1.517-.63-.23-.554-1.517.63.23.554zm1.517-.63c.378-.156.66-.485.777-.884l-.576-.168a.765.765 0 0 1-.431.498l.23.555zm.777-.884.644-2.205-.576-.168-.644 2.205.576.168zm.644-2.205c.21-.716-.157-1.5-.862-1.736l-.19.569c.37.124.603.563.476.999l.576.168zm-.86-1.736c-.718-.242-1.452.195-1.663.916l.576.168c.126-.429.534-.637.894-.515l.192-.569zm-1.663.916-.497 1.704.576.168.497-1.703-.576-.169zm-.324 1.51-1.45.602.229.555 1.45-.602-.229-.554zm-1.105.688a6.012 6.012 0 0 0-.929-.904l-.368.474c.304.236.582.51.835.814l.462-.384zm-.818-.724a4.33 4.33 0 0 0-.735-1.72l-.486.351c.308.426.527.934.632 1.482l.589-.113zM16.76 7.28l.395-.54-.485-.354-.395.54.485.354zm.395-.54c.436-.6.341-1.465-.228-1.94l-.384.461c.32.266.382.774.127 1.125l.485.353zm-.228-1.94c-.581-.485-1.42-.367-1.866.243l.485.354a.676.676 0 0 1 .997-.136l.384-.46zm-1.866.244-.466.639.485.353.466-.64-.485-.353zm-.133.53a3.375 3.375 0 0 0-2.02-.001l.18.572a2.775 2.775 0 0 1 1.66 0l.18-.572zm-1.688.108-.465-.638-.485.354.466.638.485-.354zm-.465-.638c-.446-.612-1.285-.728-1.866-.243l.385.46a.676.676 0 0 1 .996.137l.485-.354zm-1.866-.243c-.568.475-.664 1.34-.227 1.939l.485-.354a.844.844 0 0 1 .127-1.124l-.385-.46zm-.227 1.939.394.54.485-.353-.394-.54-.485.353zm.394.188c-.363.5-.616 1.09-.736 1.722l.589.113a3.722 3.722 0 0 1 .633-1.484l-.486-.351zM10.45 8.47c-.34.265-.649.568-.927.902l.461.384c.253-.304.53-.576.835-.813l-.37-.473zm-.581.817-1.451-.602-.23.555 1.45.601.23-.554zM8.59 8.878l-.498-1.703-.576.168.498 1.704.576-.169zm-.498-1.703c-.21-.722-.946-1.157-1.661-.916l.191.568c.36-.12.77.088.894.516l.576-.168zm-1.66-.916c-.705.235-1.071 1.02-.862 1.735l.576-.168c-.127-.434.105-.874.476-.998l-.19-.57zM5.57 7.994l.644 2.206.576-.169-.644-2.205-.576.168zm.644 2.206c.116.398.4.728.778.884l.23-.554a.765.765 0 0 1-.432-.499l-.576.168zm.778.884 1.517.629.23-.555-1.518-.628-.23.554zm1.357.232c-.175.4-.325.819-.454 1.247l.575.172c.122-.408.265-.803.429-1.18l-.55-.24zm-.447 1.227c-.026.07-.048.143-.063.218l.587.123a.88.88 0 0 1 .038-.13l-.562-.21zm-.058.198a14.14 14.14 0 0 0-.385 1.84l.594.085c.085-.599.207-1.192.368-1.762l-.577-.163zm-.057 1.585-.993-.104-.063.596.993.104.063-.596zm-.783.016L5.9 12.843l-.483.356 1.105 1.499.483-.356zM5.9 12.844a1.275 1.275 0 0 0-1.867-.233l.387.459a.675.675 0 0 1 .997.13l.483-.356zm-1.867-.233c-.566.478-.657 1.343-.217 1.94l.483-.356a.844.844 0 0 1 .121-1.126l-.387-.458zm-.217 1.94 1.374 1.864.483-.356-1.374-1.864-.483.356zm1.374 1.864c.22.297.547.492.911.53l.063-.596a.704.704 0 0 1-.491-.29l-.483.356zm.911.53 1.465.154.063-.596-1.465-.154-.063.596zm1.197-.147v.115h.6v-.11l-.6-.005zm0 .115c0 .79.085 1.536.25 2.229l.584-.14a9.006 9.006 0 0 1-.235-2.09h-.6zm.448 1.874-1.093.362.188.57 1.093-.362-.188-.57zm-1.093.362c-.42.139-.74.486-.866.916l.576.17a.758.758 0 0 1 .478-.516l-.188-.57zm-.866.916-.515 1.758.576.168.515-1.757-.576-.169zm-.515 1.758c-.21.715.157 1.5.861 1.736l.19-.569c-.37-.124-.602-.564-.475-.999l-.576-.168zm.861 1.736c.132.044.266.067.4.067v-.6a.663.663 0 0 1-.21-.036l-.19.57zm.4.067c.576 0 1.09-.394 1.262-.981l-.576-.169c-.102.346-.392.55-.685.55v.6zm1.262-.981.354-1.21-.576-.17-.354 1.211.576.169zm.16-1.01.783-.259-.189-.57-.782.26.189.569zm.43-.39c1.14 1.918 3.1 3.055 5.534 3.055v-.6c-2.23 0-3.99-1.03-5.017-2.762l-.516.306zM13.92 24.3c2.435 0 4.396-1.137 5.534-3.056l-.516-.306C17.91 22.668 16.15 23.7 13.92 23.7v.6zm5.182-2.924.783.259.188-.57-.782-.259-.189.57zm.59.058.354 1.21.576-.168-.355-1.21-.576.168zm.354 1.21c.172.587.686.981 1.26.981v-.6c-.292 0-.582-.203-.684-.55l-.576.17zm1.26.981c.135 0 .27-.021.402-.066l-.192-.569a.65.65 0 0 1-.21.035v.6zm.402-.066c.704-.237 1.07-1.021.86-1.737l-.576.169c.128.435-.104.875-.475 1l.19.568zm.86-1.737-.516-1.758-.575.169.515 1.758.576-.169zm-.515-1.758a1.357 1.357 0 0 0-.866-.916l-.188.57c.22.072.403.26.477.515l.576-.169zm-.866-.916-1.093-.362-.189.57 1.094.361.188-.57zm-.896-.008c.165-.692.251-1.438.251-2.228h-.6c0 .747-.081 1.446-.234 2.09l.583.138zm.251-2.228V16.8h-.6v.112h.6zm-.269.186 1.466-.154-.063-.597-1.466.154.063.597zm1.466-.154c.364-.038.692-.233.91-.531l-.482-.356a.703.703 0 0 1-.49.29l.062.597zm.91-.53 1.374-1.865-.483-.355-1.373 1.863.483.356zm1.374-1.864c.44-.597.35-1.462-.217-1.94l-.387.459a.843.843 0 0 1 .122 1.124l.482.357zm-.24-1.958-.34.494.34-.494zm-11.58-2.003a1.4 1.4 0 0 0 .104-.065l-.34-.495a.807.807 0 0 1-.059.037l.296.523zm.09-.056c.443-.268.977-.43 1.627-.43v-.6c-.756 0-1.398.19-1.938.517l.31.513zm1.627-.43c.64 0 1.168.157 1.607.419l.307-.516c-.535-.318-1.17-.503-1.914-.503v.6zm1.584.403c.05.037.103.07.158.1l.283-.53a.753.753 0 0 1-.088-.055l-.353.485zm.135.086c.543.357.962.889 1.284 1.513l.533-.275c-.353-.686-.834-1.31-1.487-1.74l-.33.502zm1.55 1.076h-6.54v.6h6.54v-.6zm-6.273.437c.325-.631.75-1.168 1.303-1.526l-.326-.503c-.665.43-1.153 1.06-1.51 1.754l.533.275zm1.244-2.059-.208.563.208-.563zm1.76 11.47c-.976 0-1.966-.304-2.71-1.014-.741-.705-1.273-1.846-1.273-3.59h-.6c0 1.871.575 3.182 1.458 4.025.88.838 2.03 1.178 3.125 1.178v-.6zm-3.983-4.604c0-.434.029-1.518.272-2.702l-.587-.12a14.65 14.65 0 0 0-.285 2.822h.6zm-.021-2.462h2.984v-.6H9.915v.6zm2.684-.3v3.91h.6v-3.91h-.6zm0 3.91c0 .749.572 1.391 1.32 1.391v-.6c-.38 0-.72-.334-.72-.79h-.6zm1.32 1.391c.747 0 1.319-.642 1.319-1.39h-.6c0 .456-.34.79-.72.79v.6zm1.319-1.39V14.15h-.6v3.91h.6zm-.3-3.611h2.984v-.6h-2.984v.6zm2.69-.24a14.05 14.05 0 0 1 .272 2.702h.6c0-.455-.029-1.584-.284-2.823l-.588.121zm.272 2.702c0 1.744-.53 2.885-1.271 3.59-.744.71-1.735 1.014-2.71 1.014v.6c1.094 0 2.245-.341 3.124-1.18.883-.842 1.457-2.153 1.457-4.024h-.6zm-3.981 5.204v-.6.6z" fill="#0138A1" mask="url(#b205keqvra)"/>
</svg>
