<svg width="30" height="32" viewBox="0 0 30 32" fill="none" xmlns="http://www.w3.org/2000/svg">
    <path d="M14.037 31.25a2.507 2.507 0 0 0 2.423-2.142h-4.939a2.507 2.507 0 0 0 2.516 2.141zM27.662 25.193a13.52 13.52 0 0 1-2.357-2.752 11.859 11.859 0 0 1-1.267-4.516v-4.639a10.25 10.25 0 0 0-.15-1.68 6.987 6.987 0 0 1-2.104-.789c.25.803.376 1.638.376 2.479v4.638a13.371 13.371 0 0 0 1.549 5.493A15.185 15.185 0 0 0 26 26.244H1.953a15.183 15.183 0 0 0 2.291-2.817 13.37 13.37 0 0 0 1.55-5.493v-4.648a8.263 8.263 0 0 1 8.244-8.3 8.084 8.084 0 0 1 4.469 1.352 7.035 7.035 0 0 1-.244-1.643v-.592a9.934 9.934 0 0 0-3.118-.939V1.981a1.253 1.253 0 1 0-2.506 0v1.23a10.15 10.15 0 0 0-8.733 10.076v4.638a11.86 11.86 0 0 1-1.268 4.516A13.523 13.523 0 0 1 .32 25.193a.94.94 0 0 0-.319.704v1.277a.939.939 0 0 0 .939.939h26.103a.939.939 0 0 0 .94-.94v-1.276a.939.939 0 0 0-.32-.704zM25.305 9.39a4.695 4.695 0 1 0 0-9.39 4.695 4.695 0 0 0 0 9.39z" fill="#000" fill-opacity=".75"/>
</svg>
