<svg width="36" height="36" viewBox="0 0 36 36" fill="none" xmlns="http://www.w3.org/2000/svg">
    <circle cx="18" cy="18" r="18" fill="#FADCDC"/>
    <path d="m26.67 15.816-1.106-.194a7.877 7.877 0 0 0-.535-1.285l.646-.92a1.606 1.606 0 0 0-.18-2.063l-.852-.852a1.606 1.606 0 0 0-2.062-.18l-.92.647a7.885 7.885 0 0 0-1.286-.533l-.181-1.095A1.606 1.606 0 0 0 18.608 8h-1.205a1.607 1.607 0 0 0-1.586 1.341l-.194 1.106c-.444.139-.874.317-1.286.532l-.92-.646a1.608 1.608 0 0 0-2.063.18l-.852.852a1.607 1.607 0 0 0-.18 2.063l.647.92a7.887 7.887 0 0 0-.533 1.285l-1.095.184A1.606 1.606 0 0 0 8 17.402v1.207a1.607 1.607 0 0 0 1.341 1.584l1.106.194c.139.443.317.873.532 1.285l-.646.92a1.607 1.607 0 0 0 .18 2.063l.854.854a1.606 1.606 0 0 0 2.063.18l.92-.646a7.89 7.89 0 0 0 1.285.532l.181 1.093A1.607 1.607 0 0 0 17.401 28h1.207a1.607 1.607 0 0 0 1.586-1.33l.194-1.106a7.88 7.88 0 0 0 1.285-.533l.92.646a1.608 1.608 0 0 0 2.063-.18l.852-.851a1.607 1.607 0 0 0 .18-2.063l-.646-.92c.215-.412.394-.842.534-1.285l1.093-.184A1.607 1.607 0 0 0 28 18.61v-1.207a1.607 1.607 0 0 0-1.33-1.586zm.309 2.792a.578.578 0 0 1-.479.569l-1.42.25a.516.516 0 0 0-.412.373 6.856 6.856 0 0 1-.683 1.65c-.1.174-.09.39.025.553l.825 1.182a.578.578 0 0 1-.064.74l-.852.853a.576.576 0 0 1-.74.064l-1.182-.825a.516.516 0 0 0-.549-.03 6.862 6.862 0 0 1-1.65.684.515.515 0 0 0-.374.412l-.25 1.422a.579.579 0 0 1-.569.478h-1.202a.577.577 0 0 1-.57-.479l-.25-1.421a.515.515 0 0 0-.373-.412 6.86 6.86 0 0 1-1.65-.683.516.516 0 0 0-.555.024l-1.182.825a.579.579 0 0 1-.74-.064l-.853-.851a.578.578 0 0 1-.063-.741l.825-1.182a.516.516 0 0 0 .03-.55 6.868 6.868 0 0 1-.682-1.651.516.516 0 0 0-.413-.374l-1.417-.247a.577.577 0 0 1-.479-.57v-1.204a.578.578 0 0 1 .479-.57l1.421-.25a.516.516 0 0 0 .413-.372 6.868 6.868 0 0 1 .683-1.65.516.516 0 0 0-.025-.554l-.825-1.182a.578.578 0 0 1 .064-.74l.852-.852a.577.577 0 0 1 .74-.064l1.183.825c.163.115.379.124.552.025a6.858 6.858 0 0 1 1.65-.683.516.516 0 0 0 .374-.413l.25-1.421a.578.578 0 0 1 .56-.47h1.208a.578.578 0 0 1 .569.478l.25 1.421c.033.2.179.36.373.413a6.873 6.873 0 0 1 1.65.683c.174.1.39.09.553-.025l1.182-.825a.578.578 0 0 1 .74.064l.853.852a.578.578 0 0 1 .064.74l-.825 1.183a.516.516 0 0 0-.031.546c.298.518.528 1.073.683 1.65.052.195.213.34.412.374l1.421.25a.579.579 0 0 1 .479.569l-.004 1.203z" fill="#A70000"/>
    <path d="M19.177 13.41a1.353 1.353 0 0 0-2.346 0l-3.554 6.158a1.353 1.353 0 0 0 1.172 2.03h7.11a1.353 1.353 0 0 0 1.172-2.03l-3.554-6.157zm2.661 6.996a.315.315 0 0 1-.278.16h-7.11a.322.322 0 0 1-.278-.482l3.555-6.158a.322.322 0 0 1 .559 0l3.552 6.158c.058.1.058.222 0 .322z" fill="#A70000"/>
    <path d="M18.005 15.509a.516.516 0 0 0-.515.516v1.8a.516.516 0 0 0 1.031 0v-1.8a.516.516 0 0 0-.516-.516zM18.005 18.943a.516.516 0 0 0-.516.516v.029a.516.516 0 0 0 1.032 0v-.029a.515.515 0 0 0-.516-.516z" fill="#A70000"/>
</svg>
