<svg width="24" height="24" viewBox="0 0 24 24" fill="none" xmlns="http://www.w3.org/2000/svg">
    <path d="M16.445 0h-8.89A7.565 7.565 0 0 0 0 7.556v8.889A7.565 7.565 0 0 0 7.556 24h8.889A7.565 7.565 0 0 0 24 16.445v-8.89A7.565 7.565 0 0 0 16.445 0zm6.666 16.445a6.667 6.667 0 0 1-6.666 6.666h-8.89A6.667 6.667 0 0 1 .89 16.445v-8.89A6.667 6.667 0 0 1 7.556.89h8.889a6.667 6.667 0 0 1 6.666 6.667v8.889zM16.89 12a.445.445 0 0 1-.444.445h-4v4a.444.444 0 0 1-.89 0v-4h-4a.444.444 0 0 1 0-.89h4v-4a.445.445 0 0 1 .89 0v4h4a.444.444 0 0 1 .444.445z" fill="#2F80ED"/>
</svg>
