<svg width="36" height="36" viewBox="0 0 36 36" fill="none" xmlns="http://www.w3.org/2000/svg">
    <circle cx="18" cy="18" r="18" fill="#F4F1E1"/>
    <path fill-rule="evenodd" clip-rule="evenodd" d="M16.737 8.337a2.532 2.532 0 0 1 2.526 0l6.545 3.79A2.353 2.353 0 0 1 27 14.157v7.686c0 .831-.452 1.602-1.192 2.03l-6.545 3.79c-.778.45-1.748.45-2.526 0l-6.545-3.79A2.353 2.353 0 0 1 9 21.843v-7.686c0-.832.452-1.602 1.192-2.03l6.545-3.79zm1.684 1.354a.843.843 0 0 0-.842 0l-6.545 3.79a.784.784 0 0 0-.398.676v7.686c0 .277.151.534.398.676l6.545 3.79c.26.15.583.15.842 0l6.546-3.79a.784.784 0 0 0 .397-.676v-7.686a.784.784 0 0 0-.398-.676l-6.545-3.79zm-5.213 4.745a.836.836 0 0 1 1.122-.27L18 16.29l3.67-2.125a.836.836 0 0 1 1.123.271.774.774 0 0 1-.281 1.083l-3.694 2.138v4.29c0 .436-.366.79-.818.79-.452 0-.818-.354-.818-.79v-4.29l-3.694-2.138a.774.774 0 0 1-.28-1.083z" fill="#D0AB00"/>
</svg>
