<svg width="36" height="36" viewBox="0 0 36 36" fill="none" xmlns="http://www.w3.org/2000/svg">
    <circle cx="18" cy="18" r="18" fill="#FAD6FF"/>
    <path d="M18 8a9.97 9.97 0 0 0-7.074 2.925c-3.901 3.902-3.901 10.252 0 14.155 3.902 3.902 10.246 3.902 14.148 0 3.901-3.902 3.901-10.252 0-14.155A9.97 9.97 0 0 0 18 8zm0 1.327a8.65 8.65 0 0 1 4.155 1.063L19.8 12.746a5.59 5.59 0 0 0-3.6 0l-2.355-2.356A8.65 8.65 0 0 1 18 9.327zm-5.295 1.814 2.23 2.223a5.526 5.526 0 0 0-.868.71c-.268.268-.5.563-.702.868l-2.23-2.23c.225-.292.469-.574.736-.842.266-.265.545-.505.834-.73zm10.59 0c.289.224.568.464.834.73.267.267.511.549.736.84l-2.23 2.23a5.576 5.576 0 0 0-.702-.868c-.27-.27-.56-.505-.869-.709l2.23-2.223zM18 13.774c1.08 0 2.16.416 2.988 1.244a4.216 4.216 0 0 1 0 5.976 4.216 4.216 0 0 1-5.976 0 4.216 4.216 0 0 1 0-5.976A4.215 4.215 0 0 1 18 13.774zm-7.608.084 2.348 2.341a5.611 5.611 0 0 0 0 3.607l-2.355 2.348a8.665 8.665 0 0 1 .007-8.296zm15.217 0a8.665 8.665 0 0 1 .007 8.296l-2.356-2.348a5.611 5.611 0 0 0 0-3.607l2.349-2.341zm-12.25 7.212c.202.306.44.593.709.862.268.268.556.507.861.709l-2.223 2.223a8.825 8.825 0 0 1-.834-.73 8.71 8.71 0 0 1-.737-.84l2.224-2.224zm9.283 0 2.224 2.224a8.684 8.684 0 0 1-.737.84 8.812 8.812 0 0 1-.834.73l-2.223-2.223c.305-.202.593-.44.861-.71.27-.268.507-.555.709-.86zm-6.441 2.189a5.609 5.609 0 0 0 3.599 0l2.355 2.355a8.658 8.658 0 0 1-8.31 0L16.2 23.26z" fill="#9E00B4"/>
</svg>
