<svg width="24" height="24" viewBox="0 0 24 24" fill="none" xmlns="http://www.w3.org/2000/svg">
    <path d="m12.884 12 3.98-3.979a.61.61 0 0 0 0-.884.61.61 0 0 0-.885 0L12 11.116l-3.979-3.98a.61.61 0 0 0-.884 0 .61.61 0 0 0 0 .885L11.116 12l-3.98 3.979a.61.61 0 0 0 0 .884c.127.127.285.19.443.19a.624.624 0 0 0 .442-.19L12 12.884l3.979 3.98c.126.126.284.189.442.189a.624.624 0 0 0 .442-.19.61.61 0 0 0 0-.884L12.884 12zm0 0 3.98-3.979a.61.61 0 0 0 0-.884.61.61 0 0 0-.885 0L12 11.116l-3.979-3.98a.61.61 0 0 0-.884 0 .61.61 0 0 0 0 .885L11.116 12l-3.98 3.979a.61.61 0 0 0 0 .884c.127.127.285.19.443.19a.624.624 0 0 0 .442-.19L12 12.884l3.979 3.98c.126.126.284.189.442.189a.624.624 0 0 0 .442-.19.61.61 0 0 0 0-.884L12.884 12zm0 0 3.98-3.979a.61.61 0 0 0 0-.884.61.61 0 0 0-.885 0L12 11.116l-3.979-3.98a.61.61 0 0 0-.884 0 .61.61 0 0 0 0 .885L11.116 12l-3.98 3.979a.61.61 0 0 0 0 .884c.127.127.285.19.443.19a.624.624 0 0 0 .442-.19L12 12.884l3.979 3.98c.126.126.284.189.442.189a.624.624 0 0 0 .442-.19.61.61 0 0 0 0-.884L12.884 12zM12 0C5.368 0 0 5.368 0 12s5.368 12 12 12 12-5.368 12-12S18.632 0 12 0zm0 22.737c-5.937 0-10.737-4.8-10.737-10.737S6.063 1.263 12 1.263 22.737 6.063 22.737 12 17.937 22.737 12 22.737zm4.863-15.6a.61.61 0 0 0-.884 0l-3.98 3.979-3.978-3.98a.61.61 0 0 0-.884 0 .61.61 0 0 0 0 .885L11.116 12l-3.98 3.979a.61.61 0 0 0 0 .884c.127.127.285.19.443.19a.624.624 0 0 0 .442-.19L12 12.884l3.979 3.98c.126.125.284.189.442.189a.624.624 0 0 0 .442-.19.61.61 0 0 0 0-.884L12.884 12l3.979-3.979a.61.61 0 0 0 0-.884zM12.884 12l3.979-3.979a.61.61 0 0 0 0-.884.61.61 0 0 0-.884 0l-3.98 3.979-3.978-3.98a.61.61 0 0 0-.884 0 .61.61 0 0 0 0 .885L11.116 12l-3.98 3.979a.61.61 0 0 0 0 .884c.127.126.285.19.443.19a.624.624 0 0 0 .442-.19L12 12.884l3.979 3.979c.126.127.284.19.442.19a.624.624 0 0 0 .442-.19.61.61 0 0 0 0-.884L12.884 12z" fill="#000"/>
</svg>
